{
  "asset": {
    "version": "2.0",
    "generator": "gltfeditor.com",
    "copyright": "CC0, No Rights Reserved. Model and textures created by Eric Chadwick."
  },
  "buffers": [
    {
      "uri": "data:application/octet-stream;base64,",
      "byteLength": 73728
    }
  ],
  "bufferViews": [
    {
      "buffer": 0,
      "byteOffset": 0,
      "byteLength": 41472,
      "byteStride": 24,
      "target": 34962
    },
    {
      "buffer": 0,
      "byteOffset": 41472,
      "byteLength": 13824,
      "byteStride": 8,
      "target": 34962
    },
    {
      "buffer": 0,
      "byteOffset": 55296,
      "byteLength": 18432,
      "target": 34963
    }
  ],
  "accessors": [
    {
      "bufferView": 0,
      "byteOffset": 0,
      "componentType": 5126,
      "normalized": false,
      "count": 1728,
      "min": [
        -0.5000792145729065,
        -0.4901544749736786,
        -0.5000792145729065
      ],
      "max": [
        0.5000792145729065,
        0.4901543855667114,
        0.5000792145729065
      ],
      "type": "VEC3"
    },
    {
      "bufferView": 0,
      "byteOffset": 12,
      "componentType": 5126,
      "normalized": false,
      "count": 1728,
      "min": [
        -1,
        -1,
        -1
      ],
      "max": [
        1,
        1,
        1
      ],
      "type": "VEC3"
    },
    {
      "bufferView": 1,
      "byteOffset": 0,
      "componentType": 5126,
      "normalized": false,
      "count": 1728,
      "min": [
        0,
        0
      ],
      "max": [
        0.9995999336242676,
        1
      ],
      "type": "VEC2"
    },
    {
      "bufferView": 2,
      "byteOffset": 0,
      "componentType": 5123,
      "normalized": false,
      "count": 9216,
      "min": [
        0
      ],
      "max": [
        1727
      ],
      "type": "SCALAR"
    }
  ],
  "scene": 0,
  "scenes": [
    {
      "nodes": [
        0
      ],
      "name": "ClearcoatWicker"
    }
  ],
  "nodes": [
    {
      "name": "Sphere",
      "matrix": [
        1,
        0,
        0,
        0,
        0,
        1,
        0,
        0,
        0,
        0,
        1,
        0,
        0,
        0.5,
        0,
        1
      ],
      "mesh": 0
    }
  ],
  "meshes": [
    {
      "primitives": [
        {
          "material": 0,
          "mode": 4,
          "attributes": {
            "POSITION": 0,
            "NORMAL": 1,
            "TEXCOORD_0": 2
          },
          "indices": 3
        }
      ]
    }
  ],
  "materials": [
    {
      "name": "ClearcoatWicker",
      "pbrMetallicRoughness": {
        "baseColorFactor": [
          1,
          1,
          1,
          1
        ],
        "metallicFactor": 1,
        "roughnessFactor": 1,
        "baseColorTexture": {
          "index": 0,
          "texCoord": 0
        },
        "metallicRoughnessTexture": {
          "index": 1,
          "texCoord": 0
        }
      },
      "emissiveFactor": [
        0,
        0,
        0
      ],
      "alphaMode": "OPAQUE",
      "doubleSided": false,
      "extensions": {
        "KHR_materials_clearcoat": {
          "clearcoatFactor": 1,
          "clearcoatRoughnessFactor": 0.1,
          "clearcoatNormalTexture": {
            "index": 3,
            "texCoord": 0
          }
        }
      },
      "normalTexture": {
        "index": 2,
        "texCoord": 0,
        "scale": 1
      },
      "occlusionTexture": {
        "index": 1,
        "texCoord": 0,
        "strength": 1
      }
    }
  ],
  "textures": [
    {
      "sampler": 0,
      "name": "wicker_basecolor.png",
      "source": 0
    },
    {
      "sampler": 1,
      "name": "wicker_occlusion-rough-metal.png",
      "source": 1
    },
    {
      "sampler": 2,
      "name": "wicker_normal.png",
      "source": 2
    },
    {
      "sampler": 3,
      "name": "clearcoat_normal.png",
      "source": 3
    }
  ],
  "samplers": [
    {
      "magFilter": 9729,
      "minFilter": 9987,
      "wrapS": 10497,
      "wrapT": 10497
    },
    {
      "magFilter": 9729,
      "minFilter": 9987,
      "wrapS": 10497,
      "wrapT": 10497
    },
    {
      "magFilter": 9729,
      "minFilter": 9987,
      "wrapS": 10497,
      "wrapT": 10497
    },
    {
      "magFilter": 9729,
      "minFilter": 9987,
      "wrapS": 10497,
      "wrapT": 10497
    }
  ],
  "images": [
    {
      "uri": "data:image/jpeg;base64,",
      "mimeType": "image/jpeg"
    },
    {
      "uri": "data:image/jpeg;base64,",
      "mimeType": "image/jpeg"
    },
    {
      "uri": "data:image/jpeg;base64,",
      "mimeType": "image/jpeg"
    },
    {
      "uri": "data:image/jpeg;base64,",
      "mimeType": "image/jpeg"
    }
  ],
  "extensionsUsed": [
    "KHR_materials_clearcoat"
  ]
}